<?xml version="1.0" standalone="no"?><!DOCTYPE svg PUBLIC "-//W3C//DTD SVG 1.1//EN" "http://www.w3.org/Graphics/SVG/1.1/DTD/svg11.dtd"><svg t="1550826900828" class="icon" style="" viewBox="0 0 1024 1024" version="1.1" xmlns="http://www.w3.org/2000/svg" p-id="12300" xmlns:xlink="http://www.w3.org/1999/xlink" width="15" height="15"><defs><style type="text/css"></style></defs><path d="M538.5 355.6c-0.2 0.8-0.4 1.6-0.8 2.4 0.1-0.2 0.3-1 0.8-2.4z" fill="#e60000" p-id="12301"></path><path d="M672.4 904.7c0 37-71.8 67-160.4 67s-160.4-30-160.4-67c0-27.6 40-51.3 97.1-61.6-1.7-56.1-2.9-144.9 1.2-241.9 3.9-91.8 11.8-173.8 23.5-243.9-15.7-10.1-24.3-24.1-19.9-34.4 0 0 4.3-43.6 27.9-162.2 16.5-82.8 28.2-95.2 28.9-95.9 1.5-1.9 3.2-3.7 5.2-5.2 20.3-16.1 56.6-4 81.1 26.9 21.1 26.6 26.6 58.6 14.8 77.2 0 0 0 0.1-0.1 0.1-0.1 0.1-0.2 0.3-0.4 0.6 0 0.1-0.1 0.2-0.2 0.3-2.6 4.1-12.8 21.3-30.4 66-10.6 26.8-37 109.8-41.8 125.2-0.5 1.4-0.7 2.3-0.8 2.4-3.3 7.8-13.3 11.8-25.8 11.5-10.9 67-18.3 145.1-22 233.1-4 94-2.9 180-1.3 235.5 7.6-0.5 15.5-0.7 23.4-0.7 88.6 0 160.4 30 160.4 67z" fill="#e60000" p-id="12302"></path><path d="M610.9 164.1c0.2-0.3 0.3-0.4 0.4-0.6-0.2 0.2-0.3 0.4-0.4 0.6z" fill="#e60000" p-id="12303"></path></svg>