<?xml version="1.0" standalone="no"?><!DOCTYPE svg PUBLIC "-//W3C//DTD SVG 1.1//EN" "http://www.w3.org/Graphics/SVG/1.1/DTD/svg11.dtd"><svg t="1550825419229" class="icon" style="" viewBox="0 0 1024 1024" version="1.1" xmlns="http://www.w3.org/2000/svg" p-id="6539" xmlns:xlink="http://www.w3.org/1999/xlink" width="25" height="25"><defs><style type="text/css"></style></defs><path d="M624.128 461.824c0.512-5.12 0.512-10.24 0.512-15.36V383.488c-8.192-0.512-15.36-0.512-22.528 0l-12.288-34.816-23.04 40.96c-36.352 8.704-69.632 19.456-134.656-9.728h-10.752v66.56c0 4.608 0 9.216 0.512 13.312-61.44-40.96-40.96-65.536-56.32-152.576C409.6 237.056 645.12 242.688 675.84 307.2c-9.728 64 0.512 118.784-50.176 152.576l-1.536 2.048z m-498.176 52.736c-5.632-40.96-5.632-66.56-0.512-100.864 76.288 19.968 94.208-52.736 166.912 0 4.608 35.328 2.56 71.168-2.56 99.84-3.584 18.944-11.264 35.84-22.016 49.152-15.36 18.944-36.352 30.72-59.904 30.72s-44.544-11.776-59.904-30.72c-10.752-13.312-18.432-29.696-22.016-48.128z m135.68 80.384c-22.016 47.104-88.064 45.056-105.984 0l-59.904 15.36-2.048 0.512-1.536 1.536c-11.264 10.24-18.944 23.552-22.528 40.96-3.584 16.384-3.584 36.352 0.512 59.904l1.536 7.68h192.512c-1.536 23.552 0 49.664 5.632 79.36l2.56 14.336h503.808l2.048-14.848c3.584-27.136 5.12-53.76 3.072-78.848h179.2l1.024-8.192c2.56-18.432 3.072-36.352 0.512-52.736-2.56-16.896-8.704-32.768-19.456-46.592l-2.048-2.56-3.072-1.024-61.952-15.36-11.264 9.216-39.936 91.648-43.008-91.648-11.776-9.216-51.2 13.312-97.28-24.064-20.992 16.384v22.016l-35.84 130.048-21.504-100.352 17.92-13.824-11.264-33.28H501.76l-11.264 33.28 17.92 13.824-22.528 105.984-38.4-135.168v-22.016l-21.504-16.384-101.888 26.624-62.464-15.872z m477.184-80.384c-5.632-40.96-5.632-79.36-0.512-113.664 28.16-26.112 146.944-25.088 166.912 0 4.608 35.328 2.56 83.456-2.56 112.128-3.584 18.944-11.264 35.84-22.016 49.152-15.36 18.944-36.352 30.72-59.904 30.72s-44.544-11.776-59.904-30.72c-10.752-12.8-18.432-29.184-22.016-47.616z" fill="#ffffff" p-id="6540"></path></svg>