<?xml version="1.0" standalone="no"?><!DOCTYPE svg PUBLIC "-//W3C//DTD SVG 1.1//EN" "http://www.w3.org/Graphics/SVG/1.1/DTD/svg11.dtd"><svg t="1550825984023" class="icon" style="" viewBox="0 0 1024 1024" version="1.1" xmlns="http://www.w3.org/2000/svg" p-id="9590" xmlns:xlink="http://www.w3.org/1999/xlink" width="20" height="20"><defs><style type="text/css"></style></defs><path d="M898.722909 1005.963636l-628.363636 0c-64.162909 0-116.363636-52.200727-116.363636-116.363636l0-628.363636c0-64.162909 52.200727-116.363636 116.363636-116.363636l628.363636 0c64.162909 0 116.363636 52.200727 116.363636 116.363636l0 628.363636C1015.086545 953.762909 962.885818 1005.963636 898.722909 1005.963636zM270.359273 191.418182c-38.493091 0-69.818182 31.325091-69.818182 69.818182l0 628.363636c0 38.493091 31.325091 69.818182 69.818182 69.818182l628.363636 0c38.493091 0 69.818182-31.325091 69.818182-69.818182l0-628.363636c0-38.493091-31.325091-69.818182-69.818182-69.818182L270.359273 191.418182z" p-id="9591" fill="#ffffff"></path><path d="M130.722909 884.363636c-69.818182 0-116.363636-53.294545-116.363636-116.363636L14.359273 139.636364c0-68.654545 65.024-111.127273 125.277091-111.127273l628.363636 0c64 0 114.129455 46.545455 114.129455 116.363636l-46.545455 0c0-46.545455-29.067636-69.818182-67.584-69.818182L139.636364 75.054545C101.608727 75.054545 60.904727 101.003636 60.904727 139.636364l0 628.363636c0 37.189818 23.272727 69.818182 69.818182 69.818182L130.722909 884.363636z" p-id="9592" fill="#ffffff"></path><path d="M270.359273 377.6l605.090909 0 0 46.545455-605.090909 0 0-46.545455Z" p-id="9593" fill="#ffffff"></path><path d="M270.359273 610.327273l605.090909 0 0 46.545455-605.090909 0 0-46.545455Z" p-id="9594" fill="#ffffff"></path><path d="M270.359273 796.509091l349.090909 0 0 46.545455-349.090909 0 0-46.545455Z" p-id="9595" fill="#ffffff"></path></svg>