<?xml version="1.0" standalone="no"?><!DOCTYPE svg PUBLIC "-//W3C//DTD SVG 1.1//EN" "http://www.w3.org/Graphics/SVG/1.1/DTD/svg11.dtd"><svg t="1550799444077" class="icon" style="" viewBox="0 0 1024 1024" version="1.1" xmlns="http://www.w3.org/2000/svg" p-id="1189" xmlns:xlink="http://www.w3.org/1999/xlink" width="20" height="20"><defs><style type="text/css"></style></defs><path d="M873.11 289.78h-55.55V123.11A111.22 111.22 0 0 0 706.44 12H150.89A111.22 111.22 0 0 0 39.78 123.11v777.78A111.22 111.22 0 0 0 150.89 1012h722.22a111.22 111.22 0 0 0 111.11-111.11v-500a111.22 111.22 0 0 0-111.11-111.11zM95.33 900.89V123.11a55.63 55.63 0 0 1 55.56-55.56h555.55A55.63 55.63 0 0 1 762 123.11v833.33H150.89a55.63 55.63 0 0 1-55.56-55.55z m833.33 0a55.63 55.63 0 0 1-55.56 55.56h-55.54V345.33h55.56a55.63 55.63 0 0 1 55.56 55.56z" p-id="1190" fill="#e60000"></path><path d="M206.44 353.66a13.88 13.88 0 0 0 13.89-13.89v-87.45l63.45 95.16a13.9 13.9 0 0 0 11.56 6.18 13.72 13.72 0 0 0 4-0.6 13.88 13.88 0 0 0 9.87-13.29V206.44a13.89 13.89 0 0 0-27.78 0v87.46L218 198.74a13.89 13.89 0 0 0-25.44 7.7v133.33a13.88 13.88 0 0 0 13.88 13.89zM373.11 353.66H462a13.89 13.89 0 0 0 0-27.78h-75V287h75a13.89 13.89 0 1 0 0-27.78h-75v-38.9h75a13.89 13.89 0 1 0 0-27.78h-88.89a13.88 13.88 0 0 0-13.89 13.89v133.34a13.88 13.88 0 0 0 13.89 13.89zM535.65 353.61a14.17 14.17 0 0 0 14.46-9.2l34.1-96.35 34.13 96.35a13.91 13.91 0 0 0 13.1 9.25c0.43 0 0.9 0 1.36-0.05a13.91 13.91 0 0 0 12.4-11.83l19.45-133.33a13.92 13.92 0 0 0-11.75-15.76 14.06 14.06 0 0 0-15.76 11.75l-11.34 77.8-28.48-80.43c-4-11.07-22.24-11.07-26.2 0l-28.46 80.4-11.34-77.77a14.15 14.15 0 0 0-15.76-11.75 13.92 13.92 0 0 0-11.75 15.76l19.45 133.33a13.91 13.91 0 0 0 12.39 11.83zM650.89 512H206.44a27.78 27.78 0 0 0 0 55.56h444.45a27.78 27.78 0 0 0 0-55.56zM650.89 650.89H206.44a27.78 27.78 0 0 0 0 55.56h444.45a27.78 27.78 0 1 0 0-55.56zM650.89 789.78H206.44a27.78 27.78 0 0 0 0 55.56h444.45a27.78 27.78 0 1 0 0-55.56z" p-id="1191" fill="#e60000"></path></svg>