<?xml version="1.0" standalone="no"?><!DOCTYPE svg PUBLIC "-//W3C//DTD SVG 1.1//EN" "http://www.w3.org/Graphics/SVG/1.1/DTD/svg11.dtd"><svg t="1555574380872" class="icon" style="" viewBox="0 0 1024 1024" version="1.1" xmlns="http://www.w3.org/2000/svg" p-id="617" xmlns:xlink="http://www.w3.org/1999/xlink" width="28" height="28"><defs><style type="text/css"></style></defs><path d="M900.8 571.7c-13.5-3-26.8 5.5-29.8 19C836 749.1 698 866.1 537.5 877v-99.2c62.3-5.6 120-32.5 164.8-77.3 50.5-50.5 78.4-117.7 78.4-189.2 0-71.5-27.8-138.7-78.4-189.2-44.7-44.7-102.5-71.7-164.8-77.3v-99.2c161 10.9 299.2 128.4 333.7 287.5 2.9 13.5 16.2 22.1 29.7 19.1 13.5-2.9 22.1-16.2 19.1-29.7-19.9-91.5-71-174.6-143.9-234.2-36.4-29.7-77.1-52.8-121-68.7-45.5-16.5-93.3-24.9-142.1-24.9s-96.6 8.4-142.1 24.9c-43.9 15.9-84.7 39.1-121 68.8-72.9 59.6-124 142.8-143.8 234.3-2.9 13.5 5.6 26.8 19.1 29.7 1.8 0.4 3.6 0.6 5.3 0.6 11.5 0 21.9-8 24.4-19.7C189.4 274.5 327 157.2 487.5 145.8V245c-61.8 5.8-119.2 32.7-163.7 77.2-50.5 50.5-78.4 117.7-78.4 189.2 0 71.5 27.8 138.7 78.4 189.2 44.5 44.5 101.8 71.3 163.7 77.2V877c-160-11.3-297.5-128.2-332.3-286.3-3-13.5-16.3-22-29.8-19s-22 16.3-19 29.8c20.1 91.2 71.3 174 144.1 233.3 36.3 29.6 77 52.6 120.8 68.5 45.4 16.4 93.1 24.8 141.8 24.8 48.7 0 96.4-8.3 141.7-24.7 43.8-15.9 84.5-38.9 120.8-68.4 72.8-59.2 124-142 144.1-233.2 3.1-13.8-5.4-27.2-18.9-30.1z m-170.1-60.3c0 111.7-84.6 204-193.2 216.2V295.2c108.6 12.1 193.2 104.5 193.2 216.2z m-435.2 0c0-111.3 84.1-203.4 192-216.1v432.2c-107.9-12.7-192-104.8-192-216.1z" p-id="618" fill="#dbdbdb"></path></svg>