<?xml version="1.0" standalone="no"?><!DOCTYPE svg PUBLIC "-//W3C//DTD SVG 1.1//EN" "http://www.w3.org/Graphics/SVG/1.1/DTD/svg11.dtd"><svg t="1555574675492" class="icon" style="" viewBox="0 0 1024 1024" version="1.1" xmlns="http://www.w3.org/2000/svg" p-id="1975" xmlns:xlink="http://www.w3.org/1999/xlink" width="26" height="26"><defs><style type="text/css"></style></defs><path d="M366.08 359.424c-9.728-75.264-10.752-144.896-0.512-207.36 136.192-92.672 200.704 16.384 304.64 0 8.192 65.024 5.12 152.576-4.608 204.288-6.144 34.304-20.48 65.024-40.448 89.6-28.16 34.304-66.56 55.808-109.568 55.808-43.008 0-81.92-21.504-109.568-55.808-19.456-23.552-33.28-53.248-39.936-86.528z m-68.608 588.8h449.536l-26.624 38.912H319.488l-22.016-38.912z m473.6-334.848l49.664 188.416c17.408 66.048 9.216 113.152-67.072 113.152h-16.896v-259.072h-201.728l57.856-133.12 20.992-16.384 113.664 28.16 5.632 1.536 3.584 4.608c16.896 22.016 27.648 46.592 33.28 73.216l1.024-0.512z m-460.288 301.568h-30.72c-75.776 0-83.968-47.104-67.072-113.152l49.664-188.416c6.656-31.232 20.992-55.808 41.472-74.752l3.072-2.56 4.096-1.024L420.864 506.88l21.504 16.384 62.976 133.12h-194.56v258.56z" fill="#dbdbdb" p-id="1976"></path></svg>