<?xml version="1.0" standalone="no"?><!DOCTYPE svg PUBLIC "-//W3C//DTD SVG 1.1//EN" "http://www.w3.org/Graphics/SVG/1.1/DTD/svg11.dtd"><svg t="1555637231760" class="icon" style="" viewBox="0 0 1024 1024" version="1.1" xmlns="http://www.w3.org/2000/svg" p-id="4211" xmlns:xlink="http://www.w3.org/1999/xlink" width="28" height="28"><defs><style type="text/css"></style></defs><path d="M486.099608 558.112224C545.559838 632.743992 625.267205 692.402743 647.55993 792.033881c1.661849 7.43432 2.334161 15.282055 2.142803 22.909779-0.984421 38.998199-17.795295 67.249637-45.2506 76.962859-25.51921 9.029654-61.195757-3.377934-82.434477-33.851992-13.973246-20.050662-27.398-43.305295-31.593556-66.815755C476.754776 714.582905 476.386386 636.984572 486.099608 558.112224z" p-id="4212" fill="#e60000"></path><path d="M523.458471 553.834804c77.204359 18.769482 155.049309 35.351136 231.340879 57.32152 32.760125 9.435906 56.715723 35.933397 70.662363 68.483744 20.006659 46.684252-4.598738 90.193185-54.834886 88.601944-30.274514-0.956791-64.989153-8.623401-89.231277-25.464975-66.843384-46.448892-112.458281-114.244974-163.762761-176.020946C519.577071 562.451042 521.510096 558.1419 523.458471 553.834804z" p-id="4213" fill="#e60000"></path><path d="M547.660686 507.003196c31.106462-72.109318 60.699454-144.93802 94.022397-216.008682 14.735609-31.429827 43.829228-50.758034 77.469396-61.021795 51.6698-15.775288 89.072665 14.223956 84.177168 68.160379-3.685949 40.579207-22.61916 74.837452-55.637158 97.384981-61.847603 42.241057-125.871779 81.288374-188.999538 121.662921C555.019281 513.794879 551.339472 510.399549 547.660686 507.003196z" p-id="4214" fill="#e60000"></path><path d="M461.962885 533.438265c2.255367 84.443227 12.96222 168.797427-10.749832 250.055103-7.989975 27.381627-30.65723 53.876048-53.287647 72.806189-35.787064 29.93273-82.283028 15.063067-93.15975-30.070876-6.847965-28.424376-8.414647-63.713091 2.436492-89.763396C340.540442 656.42432 403.458423 596.778872 461.962885 533.438265z" p-id="4215" fill="#e60000"></path><path d="M481.562269 476.014414c-83.034135 15.978926-163.461909 38.151925-246.402923 30.978549-28.449959-2.462075-59.364039-18.502399-81.986269-37.06722-41.073464-33.708729-30.999015-86.980004 19.019169-104.965633 25.137517-9.041934 54.840002-11.716856 81.523735-8.736988C298.525536 361.239368 442.111768 439.804724 481.562269 476.014414z" p-id="4216" fill="#e60000"></path><path d="M543.442618 535.562649c67.37448-34.426067 134.01218-70.411653 202.412013-102.667288 37.216623-17.551748 77.249385-15.170514 114.294093 4.181229 41.133839 21.494547 47.989991 64.296375 16.529465 98.707093-23.840988 26.088168-55.187927 43.668569-89.066525 41.455157-80.908728-5.288446-161.437809-16.425088-242.117316-25.206078C544.810778 546.547841 544.126186 541.060873 543.442618 535.562649z" p-id="4217" fill="#e60000"></path><path d="M532.770558 481.577107c-22.297842-76.120678-46.688345-151.711284-65.965387-228.591255-8.881274-35.422767 2.077312-71.007217 25.111934-100.795661 27.366278-35.388998 70.443375-35.932374 98.468662-0.921999 28.65769 35.803437 35.3276 78.496795 23.940249 120.587426-19.054985 70.424956-43.519166 139.377374-65.711608 208.951963C543.326984 481.063407 538.055934 481.316164 532.770558 481.577107z" p-id="4218" fill="#e60000"></path><path d="M465.809493 505.951237c-56.091506 58.777685-110.646006 119.145587-168.984692 175.600367-25.585725 24.76401-61.922305 29.880541-97.832166 25.350364-40.942481-5.16258-62.550615-36.988426-51.399647-76.502371 10.646478-37.727253 36.44505-64.288189 71.024613-79.190597 76.604702-33.012881 159.178349-40.622186 240.305041-53.906747C461.217918 500.186953 463.511147 503.06756 465.809493 505.951237z" p-id="4219" fill="#e60000"></path><path d="M506.203482 470.520283c-62.466704-39.84345-126.20947-77.852112-186.92018-120.212896-37.116339-25.89681-57.731866-64.488757-55.878658-111.806435 1.609661-41.156352 32.377408-65.259306 72.770374-57.174164 34.757618 6.960529 63.572898 25.414833 82.591043 54.43989 45.821605 69.931722 68.490907 149.71379 95.300506 227.606835C511.446903 465.75884 508.826216 468.140073 506.203482 470.520283z" p-id="4220" fill="#e60000"></path></svg>