<?xml version="1.0" standalone="no"?><!DOCTYPE svg PUBLIC "-//W3C//DTD SVG 1.1//EN" "http://www.w3.org/Graphics/SVG/1.1/DTD/svg11.dtd"><svg t="1555637484918" class="icon" style="" viewBox="0 0 1024 1024" version="1.1" xmlns="http://www.w3.org/2000/svg" p-id="4382" xmlns:xlink="http://www.w3.org/1999/xlink" width="22" height="22"><defs><style type="text/css"></style></defs><path d="M486.022861 558.467311c-9.726525 78.996169-9.357112 156.715251 4.335748 233.491869 4.198625 23.543206 17.645892 46.834678 31.641651 66.917062 21.268396 30.521131 57.000202 42.948161 82.558297 33.905204 27.499307-9.729595 44.338834-38.025035 45.322232-77.082586 0.191358-7.637957-0.484024-15.498996-2.146896-22.946618C625.406374 692.967608 545.574165 633.215736 486.022861 558.467311zM599.757205 879.206266c-3.871167 1.37123-8.1711 2.067079-12.780071 2.067079-19.330254 0-40.197514-12.021801-53.163827-30.626531-16.606213-23.826662-26.184359-43.849694-29.278837-61.2152-11.136641-62.436004-13.69593-126.779452-7.732102-195.772802 9.549493 10.875698 19.294438 21.49557 28.854165 31.914874 47.552016 51.826366 92.463901 100.774171 108.025319 170.323177 1.349741 6.03239 1.972934 12.754488 1.804089 19.435655C634.660132 848.185762 621.636514 871.465978 599.757205 879.206266z" p-id="4383" fill="#e60000"></path><path d="M755.140111 611.591229c-76.410274-22.002107-154.37188-38.609343-231.702106-57.408501-1.948375 4.313236-3.886517 8.630564-5.835915 12.942777 51.387367 61.869093 97.068779 129.771599 164.018587 176.291099 24.279986 16.870226 59.045791 24.547069 89.370447 25.505907 50.312896 1.590218 74.957179-41.98523 54.921867-88.741114C811.942815 647.580908 787.952424 621.045555 755.140111 611.591229zM811.656289 736.592175c-7.646144 11.594059-21.142529 17.975397-38.007639 17.975397-0.727571 0-1.460258-0.011256-2.202155-0.034792-31.872918-1.004887-62.382792-9.581216-81.606623-22.938432-50.79385-35.295877-90.193185-84.914972-128.295991-132.900869-6.644327-8.367575-13.43294-16.914228-20.301372-25.417903 15.435551 3.680832 30.891568 7.303336 45.991474 10.842952 54.0408 12.663414 109.919459 25.76071 163.925467 41.311895 26.211988 7.550976 48.060599 29.009707 61.519122 60.426231C820.797483 704.799074 820.423977 723.293287 811.656289 736.592175z" p-id="4384" fill="#e60000"></path><path d="M719.439004 229.822292c-33.692357 10.278087-62.827931 29.635971-77.586053 61.113893-33.377178 71.182202-63.014172 144.124492-94.169753 216.34535 3.683902 3.399423 7.368828 6.798846 11.04966 10.1952 63.222927-40.440038 127.349433-79.543637 189.292204-121.852232 33.070186-22.579251 52.033074-56.894801 55.726186-97.535407C808.651862 244.067738 771.189645 214.022445 719.439004 229.822292zM789.412682 296.786427c-3.370771 37.06722-20.488637 67.134003-49.508577 86.947258-43.565215 29.754674-89.073688 58.46046-133.083018 86.222757-12.375865 7.80578-25.032116 15.788591-37.665855 23.807219 6.255471-14.638395 12.474103-29.30135 18.552541-43.627636 21.419845-50.506301 43.567261-102.730733 67.179029-153.087631 14.687514-31.327496 45.493124-46.359864 68.75492-53.456492 7.772011-2.373047 15.240099-3.576455 22.194488-3.576455 13.310144 0 24.387433 4.422729 32.027437 12.790304C787.11229 262.926248 791.103184 278.135648 789.412682 296.786427z" p-id="4385" fill="#e60000"></path><path d="M461.849298 533.75549c-58.591443 63.436798-121.610732 123.175367-155.002236 203.345268-10.867512 26.089192-9.29776 61.433164-2.439562 89.900519 10.894118 45.203528 57.46376 60.096726 93.305059 30.119995 22.664186-18.960841 45.36828-45.497217 53.371558-72.918753C474.833007 702.815907 464.109782 618.3297 461.849298 533.75549zM437.260274 780.165576c-6.155187 21.101597-23.938202 45.124733-48.7851 65.913199-9.586332 8.018627-20.255323 12.258185-30.847565 12.258185-19.033495 0-34.063817-13.301957-39.222303-34.706453-7.233752-30.02585-6.570649-61.060681 1.731434-80.992639 27.732621-66.582441 76.213799-118.105908 127.545908-172.653245 0.356111-0.378623 0.710175-0.7552 1.065262-1.131777 0.23536 5.28026 0.478907 10.530844 0.723477 15.724123C452.642612 652.77214 455.639876 717.184149 437.260274 780.165576z" p-id="4386" fill="#e60000"></path><path d="M171.628404 365.018437c-50.094932 18.014282-60.185754 71.366398-19.046798 105.127316 22.658046 18.593474 53.617152 34.657334 82.113159 37.124526 83.070974 7.18361 163.623591-15.023158 246.787686-31.026644-39.511899-36.266995-183.323259-114.956172-228.205469-119.975489C226.552318 353.282139 196.80583 355.962178 171.628404 365.018437zM447.728696 468.317105c-4.988618 1.027399-9.950629 2.055822-14.852266 3.071965-56.729026 11.760858-110.311385 22.870894-165.179017 22.870894-10.819416 0-21.503756-0.450255-31.764448-1.338485-22.683628-1.960655-51.122331-14.954597-74.220399-33.908274-15.245216-12.512988-22.438035-28.670993-19.73446-44.329625 2.774183-16.062837 15.357779-29.227672 34.521235-36.119639 16.492626-5.933129 35.687804-9.06854 55.509245-9.06854 6.64535 0 13.261025 0.36225 19.665899 1.078565 18.377556 2.056845 60.884672 19.936051 110.931508 46.661739C395.113361 434.596096 425.864736 453.140451 447.728696 468.317105z" p-id="4387" fill="#e60000"></path><path d="M860.656283 437.243389c-37.107129-19.379373-77.197196-21.765723-114.473171-4.188392-68.505233 32.3068-135.248334 68.346621-202.728214 102.829993 0.687662 5.501294 1.370207 10.998495 2.057869 16.495696 80.804351 8.795317 161.460322 19.946284 242.493893 25.243941 33.933857 2.215458 65.328891-15.388479 89.207741-41.517579C908.718929 501.642095 901.852544 458.772728 860.656283 437.243389zM866.587366 526.391778c-21.819958 23.876804-47.682999 37.024242-72.823586 37.024242-1.598404 0-3.220345-0.052189-4.816702-0.156566-57.399291-3.753487-115.754351-10.597359-172.187641-17.214057-16.479323-1.932002-33.363875-3.913123-50.226938-5.817496 14.46034-7.448646 28.919656-14.959713 43.034119-22.287609 46.542013-24.180725 94.67322-49.183166 142.759401-71.859631 14.773472-6.967692 30.257118-10.500145 46.022173-10.500145 18.594497 0 37.314861 4.855588 55.644321 14.428617 15.615653 8.15882 25.535583 20.151969 27.937283 33.769105C884.38573 497.746368 878.939695 512.880043 866.587366 526.391778z" p-id="4388" fill="#e60000"></path><path d="M590.471724 150.990876c-28.067242-35.066657-71.213925-34.521235-98.621135 0.924045-23.073508 29.835516-34.04949 65.473177-25.152866 100.95325 19.305695 77.000722 43.73713 152.706961 66.071811 228.944296 5.28947-0.25992 10.570753-0.5137 15.866363-0.768503 22.222117-69.684082 46.726208-138.743948 65.811892-209.279421C625.855606 229.610468 619.172393 186.849572 590.471724 150.990876zM600.549244 268.00594c-13.329587 49.264007-29.653367 98.80533-45.437865 146.71755-4.709255 14.287401-9.530051 28.92068-14.278191 43.562145-4.690836-15.786545-9.449209-31.56695-14.097066-46.976918-15.95539-52.918233-32.455179-107.639532-46.070268-161.939229-7.258311-28.950356 0.762363-60.430324 22.577205-88.643899 10.629081-13.747095 24.206308-21.316491 38.225603-21.316491 13.728676 0 27.142174 7.309476 37.765115 20.581758C603.942527 190.862979 611.316471 228.217748 600.549244 268.00594z" p-id="4389" fill="#e60000"></path><path d="M465.702046 506.22753c-2.300392-2.89084-4.599761-5.774517-6.89913-8.664334-81.248466 13.302981-163.952072 20.928658-240.675478 53.992705-34.632775 14.925944-60.474326 41.526789-71.134107 79.313394-11.17041 39.574321 10.470469 71.449285 51.478442 76.622098 35.96205 4.53427 72.356958-0.587378 97.981568-25.393343C354.884125 625.555266 409.524582 565.093219 465.702046 506.22753zM286.442336 671.750377c-15.648398 15.149025-37.58399 22.827915-65.197908 22.827915-6.690376 0-13.748119-0.461511-20.972661-1.372254-15.809057-1.9934-28.356838-8.890484-35.329646-19.418258-6.928806-10.460236-8.343015-23.952528-4.093225-39.012526 9.006118-31.91999 30.782074-56.126298 62.975287-70.000284 60.968583-26.273387 127.786385-36.32737 192.405101-46.049802 6.828522-1.027399 13.763468-2.071172 20.73423-3.13848-10.183943 10.773368-20.317745 21.561062-30.241768 32.123628C367.884207 589.051887 327.725578 631.79948 286.442336 671.750377z" p-id="4390" fill="#e60000"></path><path d="M418.586982 235.623415c-19.048845-29.070082-47.90915-47.553039-82.71998-54.524824-40.453341-8.098445-71.269183 16.041348-72.880891 57.263192-1.856277 47.38931 18.789948 86.040608 55.962569 111.977327 60.804854 42.428322 124.648928 80.494289 187.211822 120.400161 2.626827-2.38635 5.250584-4.770653 7.875365-7.15598C487.18329 385.569496 464.477148 305.662585 418.586982 235.623415zM457.937199 423.370427c-43.393299-27.136034-88.266299-55.19509-130.748856-84.84027-34.208103-23.86657-51.434439-58.30901-49.816592-99.608625 1.086751-27.746948 17.677615-44.983517 43.303248-44.983517 3.974521 0 8.134261 0.427742 12.367679 1.276063 31.516808 6.310729 56.93164 23.011086 73.502038 48.295959 37.857213 57.774845 60.151985 124.366496 81.716116 188.766224 1.412163 4.220115 2.842745 8.492418 4.287653 12.789281C480.931912 437.750949 469.316364 430.485475 457.937199 423.370427z" p-id="4391" fill="#e60000"></path></svg>